<svg xmlns="http://www.w3.org/2000/svg" viewBox="0 0 512 512" role="img" aria-labelledby="title desc">
  <title id="title">B Board logo</title>
  <desc id="desc">Rounded square with a stylized blue letter B and forward arrow motif.</desc>
  <defs>
    <linearGradient id="border" x1="0" x2="1" y1="0" y2="1">
      <stop offset="0%" stop-color="#114F99" />
      <stop offset="50%" stop-color="#0F7BC6" />
      <stop offset="100%" stop-color="#18CAE5" />
    </linearGradient>
    <linearGradient id="inner" x1="0" x2="1" y1="0" y2="1">
      <stop offset="0%" stop-color="#0F4DA0" />
      <stop offset="50%" stop-color="#0F74C6" />
      <stop offset="100%" stop-color="#24C0DC" />
    </linearGradient>
  </defs>
  <rect x="28" y="28" width="456" height="456" rx="88" ry="88" fill="none" stroke="url(#border)" stroke-width="32" />
  <g fill="url(#inner)">
    <path d="M176 128h78c68 0 106 34 106 89 0 35-15 60-48 74l64 93h-94l-46-70h-24v70h-36V128Zm89 135c27 0 44-13 44-36 0-24-16-37-44-37h-53v73h53Z" />
  </g>
  <g fill="#2DC1DA">
    <path d="M314 156h56l-60 99 60 101h-58l-63-101 65-99Z" opacity="0.75" />
    <path d="M338 156h44l-60 99 60 101h-45l-63-101 64-99Z" opacity="0.9" />
  </g>
  <g fill="#0F7BC6">
    <rect x="78" y="188" width="26" height="18" rx="9" />
    <rect x="78" y="238" width="42" height="18" rx="9" />
    <rect x="78" y="288" width="34" height="18" rx="9" />
  </g>
</svg>
