<?xml version="1.0" encoding="UTF-8"?>
<svg version="1.1" xmlns="http://www.w3.org/2000/svg" width="413" height="403">
<path d="M0 0 C32.67 0 65.34 0 99 0 C106.92 11.88 114.84 23.76 123 36 C130.63704576 47.23628559 130.63704576 47.23628559 138.296875 58.45703125 C141.06796978 62.54733675 143.64585855 66.65722854 146 71 C145.6282666 71.52730713 145.2565332 72.05461426 144.87353516 72.59790039 C138.36074278 81.84526276 131.8689353 91.0983744 125.6328125 100.53515625 C122.07160383 105.91810533 118.42219145 111.23792963 114.75317383 116.54785156 C113.89916797 117.78430283 113.0492815 119.02361233 112.20410156 120.26611328 C111.05161719 121.92567208 109.83554115 123.54052179 108.6171875 125.15234375 C106.74795927 127.80749525 106.74795927 127.80749525 107.234375 130.40869141 C108.03702616 133.12531751 109.0426358 134.97290634 110.6328125 137.30859375 C111.18428955 138.12714844 111.7357666 138.94570312 112.30395508 139.7890625 C113.20537231 141.10003906 113.20537231 141.10003906 114.125 142.4375 C114.74592529 143.35402344 115.36685059 144.27054688 116.0065918 145.21484375 C117.99680491 148.14847119 119.99825876 151.07422995 122 154 C123.31713979 155.93830382 124.63355379 157.87710105 125.94921875 159.81640625 C127.23671194 161.71111911 128.5244686 163.60565297 129.8125 165.5 C130.43785645 166.42014893 131.06321289 167.34029785 131.70751953 168.28833008 C134.42160767 172.26959181 137.14868113 176.23415638 139.98046875 180.1328125 C140.41319092 180.73416016 140.84591309 181.33550781 141.29174805 181.95507812 C142.40281287 183.49067793 143.52883883 185.01542349 144.65625 186.5390625 C146 189 146 189 145.85107422 191.12792969 C144.35175471 194.42591648 142.21285761 197.30679427 140.125 200.25 C139.10406819 201.71217083 138.08323729 203.17441212 137.0625 204.63671875 C136.54429687 205.3745459 136.02609375 206.11237305 135.4921875 206.87255859 C133.35207736 209.9237562 131.23624872 212.99128896 129.125 216.0625 C128.49295654 216.97999023 128.49295654 216.97999023 127.84814453 217.91601562 C124.45722722 222.84954655 121.09719669 227.80373973 117.7421875 232.76171875 C117.27330109 233.4545546 116.80441467 234.14739044 116.32131958 234.86122131 C113.93664716 238.3855922 111.5535437 241.91101305 109.17236328 245.43774414 C108.28159381 246.75538346 107.39080679 248.07301091 106.5 249.390625 C106.09103485 249.99730515 105.6820697 250.60398529 105.26071167 251.22904968 C103.24059242 254.21527502 101.16495562 257.11339251 99 260 C66.33 260 33.66 260 0 260 C0 174.2 0 88.4 0 0 Z M70 46 C70 64.48 70 82.96 70 102 C93.84981895 104.89189377 93.84981895 104.89189377 100.8125 97.6875 C101.57139076 96.12279782 102.32478518 94.55427976 103.01367188 92.95751953 C104.24130186 90.52109942 105.75545226 88.42132359 107.359375 86.21484375 C108.2723938 84.95764526 108.2723938 84.95764526 109.20385742 83.67504883 C110.42753104 81.99617441 111.6516408 80.31761778 112.8762207 78.6394043 C113.42366943 77.853479 113.97111816 77.06755371 114.53515625 76.2578125 C115.034104 75.5580127 115.53305176 74.85821289 116.04711914 74.13720703 C117.29418733 71.34017016 116.90989768 69.88124474 116 67 C114.37230296 64.35169532 114.37230296 64.35169532 112.3125 61.75 C109.09542505 57.47985375 106.05165923 53.15540187 103.12890625 48.6796875 C102.10702942 47.04288267 102.10702942 47.04288267 101 46 C98.70848583 45.91209025 96.41427476 45.89305962 94.12109375 45.90234375 C92.86482178 45.90484131 91.6085498 45.90733887 90.31420898 45.90991211 C88.70489502 45.91901611 87.09558105 45.92812012 85.4375 45.9375 C80.343125 45.958125 75.24875 45.97875 70 46 Z M70 157 C70 175.48 70 193.96 70 213 C77.30125 213.0309375 77.30125 213.0309375 84.75 213.0625 C86.27979492 213.071604 87.80958984 213.08070801 89.38574219 213.09008789 C90.59391602 213.09258545 91.80208984 213.09508301 93.046875 213.09765625 C94.28276367 213.10289307 95.51865234 213.10812988 96.79199219 213.11352539 C99.43347202 213.02004836 101.53867645 212.92286141 104 212 C105.77782189 209.85071725 105.77782189 209.85071725 107.3125 207.125 C107.90804687 206.14144531 108.50359375 205.15789062 109.1171875 204.14453125 C109.73851562 203.10683594 110.35984375 202.06914062 111 201 C112.30640927 198.93363669 113.61861447 196.87092256 114.9375 194.8125 C115.95869465 193.20856332 116.97958951 191.60443567 118 190 C117.61779297 189.42668945 117.23558594 188.85337891 116.84179688 188.26269531 C115.70393838 186.55590757 114.56768149 184.84805153 113.43261719 183.1394043 C112.13764498 181.20332596 110.83083937 179.27511352 109.51269531 177.35473633 C103.90525202 169.13368963 103.90525202 169.13368963 102.203125 164.93359375 C100.71746017 161.08868361 100.71746017 161.08868361 96 157 C87.42 157 78.84 157 70 157 Z " fill="#153673" transform="translate(114,80)"/>
<path d="M0 0 C8.0929146 -0.23226897 16.18442557 -0.40965367 24.27985477 -0.51812172 C28.0395783 -0.57019843 31.79701365 -0.64074544 35.55541992 -0.75439453 C39.18663701 -0.86350341 42.8156626 -0.92292777 46.44839287 -0.94877243 C47.83012849 -0.96717343 49.21175113 -1.00311408 50.59254646 -1.05730057 C61.39576368 -1.4641734 61.39576368 -1.4641734 65.3583374 2.1524353 C67.1583994 4.6968823 68.60052411 7.21923515 70 10 C70.86076912 11.34168018 71.73508895 12.67494735 72.6328125 13.9921875 C73.46539662 15.28526585 74.29607918 16.57957026 75.125 17.875 C76.0752732 19.35172188 77.02580521 20.82827725 77.9765625 22.3046875 C78.71374512 23.4508252 78.71374512 23.4508252 79.46582031 24.62011719 C82.13129961 28.75491862 84.8166363 32.87679231 87.5 37 C91.71152287 43.47709655 95.92224596 49.95470936 100.125 56.4375 C100.57423828 57.12908203 101.02347656 57.82066406 101.48632812 58.53320312 C102.30450357 59.79628503 103.11834386 61.06219123 103.92675781 62.33154297 C104.8797538 63.81306585 105.87089151 65.26989829 106.8671875 66.72265625 C108 69 108 69 107.74951172 70.84423828 C106.85205301 73.42552831 105.61638716 75.46706484 104.140625 77.76953125 C103.52880371 78.72633789 102.91698242 79.68314453 102.28662109 80.66894531 C101.61453613 81.70631836 100.94245117 82.74369141 100.25 83.8125 C99.5585791 84.89241211 98.8671582 85.97232422 98.15478516 87.08496094 C93.96157388 93.60418994 89.63030675 100.01405282 85.1953125 106.37109375 C84.21957557 107.77813424 83.24398884 109.18527889 82.26855469 110.5925293 C80.35990696 113.34474335 78.42738363 116.07802327 76.48144531 118.80395508 C75.59873872 120.07182266 74.71686166 121.34026832 73.8359375 122.609375 C73.41700226 123.18235825 72.99806702 123.75534149 72.56643677 124.34568787 C71.27506235 126.14557539 71.27506235 126.14557539 70 129 C71.07444601 133.55761738 73.99726403 137.30994824 76.5625 141.1875 C77.03212158 141.90510498 77.50174316 142.62270996 77.9855957 143.36206055 C79.04947592 144.98701556 80.11527668 146.61071419 81.18261719 148.23339844 C83.20378756 151.31022576 85.21569534 154.39299207 87.2265625 157.4765625 C90.11135397 161.89839561 92.99684256 166.31976887 95.88671875 170.73828125 C96.55751465 171.77033691 97.22831055 172.80239258 97.91943359 173.86572266 C99.36116651 176.03762681 100.8195628 178.16794566 102.33447266 180.28662109 C103.07616699 181.34059082 103.81786133 182.39456055 104.58203125 183.48046875 C105.60067261 184.89235474 105.60067261 184.89235474 106.63989258 186.33276367 C108 189 108 189 108.00512695 191.38745117 C106.60286131 195.03225192 104.53280715 198.11998923 102.3359375 201.3203125 C101.86564117 202.01961884 101.39534485 202.71892517 100.91079712 203.43942261 C99.40641992 205.6731609 97.89115708 207.89924475 96.375 210.125 C94.88704998 212.32428394 93.40140506 214.52510993 91.91616821 216.72622681 C90.94743765 218.16184141 89.97785567 219.59688187 89.00741577 221.03134155 C85.79697065 225.78543667 82.67947305 230.58928774 79.62255859 235.44384766 C76.69696486 240.0527803 73.65747751 244.58598249 70.625 249.125 C69.99722656 250.06859375 69.36945313 251.0121875 68.72265625 251.984375 C68.12582031 252.87898437 67.52898437 253.77359375 66.9140625 254.6953125 C66.3773291 255.49984863 65.8405957 256.30438477 65.28759766 257.13330078 C64 259 64 259 63 260 C61.0056827 260.09405142 59.00800457 260.11743249 57.01147461 260.11352539 C55.73022202 260.11344986 54.44896942 260.11337433 53.12889099 260.11329651 C51.72004152 260.10818909 50.31119244 260.10297309 48.90234375 260.09765625 C47.46887766 260.09579202 46.03541093 260.09436814 44.60194397 260.09336853 C40.82240043 260.08954372 37.0428951 260.07971377 33.2633667 260.06866455 C29.40930702 260.05844963 25.55524118 260.05387074 21.70117188 260.04882812 C14.13409713 260.03809146 6.56705391 260.02101549 -1 260 C0.1077156 258.24976831 1.21668324 256.50032899 2.32617188 254.7512207 C2.94359253 253.77691605 3.56101318 252.80261139 4.19714355 251.79878235 C6.52667032 248.18238882 8.98900298 244.67901539 11.5 241.1875 C18.1757022 231.81520347 24.63977721 222.30297547 31.10546875 212.78515625 C34.20703369 208.22553603 37.32207402 203.67515594 40.4375 199.125 C40.99945068 198.30402832 41.56140137 197.48305664 42.14038086 196.63720703 C43.4267501 194.75802121 44.71328044 192.87894596 46 191 C41.70728367 182.63701706 36.3639126 174.98867415 31.0625 167.25 C29.18330325 164.49457366 27.30667209 161.73740228 25.4296875 158.98046875 C24.73461342 157.96079262 24.73461342 157.96079262 24.02549744 156.92051697 C19.87397547 150.8268783 15.77018504 144.70251153 11.6875 138.5625 C11.10170166 137.68174805 10.51590332 136.80099609 9.91235352 135.89355469 C8.60720716 133.92971572 7.30295501 131.96529325 6 130 C13.87568573 117.49734891 22.1484405 105.28285678 30.53710938 93.12158203 C33.04873091 89.47906015 35.55553966 85.83323073 38.0625 82.1875 C38.52760986 81.51170898 38.99271973 80.83591797 39.47192383 80.13964844 C43.46101398 75.26000848 43.46101398 75.26000848 44.78833008 69.56518555 C43.97116127 66.90616026 43.016073 65.19951666 41.38671875 62.95703125 C40.81115234 62.15031982 40.23558594 61.3436084 39.64257812 60.51245117 C38.99740234 59.62146729 38.35222656 58.7304834 37.6875 57.8125 C29.91447875 46.8591846 22.39097855 35.74749043 14.93179321 24.57846069 C13.64191002 22.64812903 12.35005276 20.71911504 11.0562439 18.79141235 C9.22030441 16.05545017 7.3905342 13.31546716 5.5625 10.57421875 C4.71985344 9.32099319 4.71985344 9.32099319 3.86018372 8.04244995 C3.35073715 7.27522614 2.84129059 6.50800232 2.31640625 5.7175293 C1.86724854 5.04521774 1.41809082 4.37290619 0.95532227 3.68022156 C0 2 0 2 0 0 Z " fill="#37AFC9" transform="translate(226,80)"/>
<path d="M0 0 C1.04219802 -0.00453111 2.08439605 -0.00906223 3.15817583 -0.01373065 C6.64393784 -0.02637194 10.12954355 -0.02475441 13.61532593 -0.02310181 C16.11740316 -0.0290873 18.61947855 -0.0358929 21.12155151 -0.04345703 C27.20968514 -0.05928952 33.29775754 -0.06556546 39.38590606 -0.06668179 C44.33843652 -0.06763371 49.29095425 -0.07175119 54.24348068 -0.07808304 C68.30268376 -0.09569038 82.36185635 -0.10492299 96.42107053 -0.10342209 C97.55701699 -0.10330222 97.55701699 -0.10330222 98.71591187 -0.10317993 C99.4741407 -0.10309817 100.23236954 -0.10301641 101.013575 -0.10293217 C113.2908007 -0.10211996 125.56790351 -0.12124256 137.84509368 -0.14945666 C150.46875533 -0.17823661 163.09235715 -0.19199408 175.71605241 -0.19026911 C182.79617337 -0.18960685 189.87616558 -0.19502649 196.95625687 -0.21662521 C203.61954392 -0.2368229 210.28251501 -0.23611125 216.9458313 -0.22159195 C219.38501762 -0.21950635 221.82422105 -0.22418978 224.26337814 -0.23631287 C241.1962865 -0.31498963 254.92473742 -0.02769551 268.52694702 11.26742554 C269.1740564 11.79078491 269.82116577 12.31414429 270.48788452 12.85336304 C277.73302828 19.33919042 282.92159546 29.82934134 283.71356273 39.56041265 C283.78999331 42.26359277 283.80310589 44.96029109 283.79437256 47.66455078 C283.79890367 48.6985817 283.80343478 49.73261262 283.8081032 50.79797781 C283.82074355 54.25610112 283.81912703 57.71406686 283.81747437 61.17221069 C283.82345992 63.65458376 283.83026553 66.13695497 283.83782959 68.61932373 C283.85366158 74.65933055 283.859938 80.69927564 283.86105435 86.73929746 C283.86200629 91.65273567 283.86612392 96.56616104 283.8724556 101.47959518 C283.89006281 115.42812325 283.89929557 129.3766206 283.89779465 143.32515986 C283.89771474 144.07648351 283.89763482 144.82780716 283.89755249 145.60189819 C283.89747073 146.3541458 283.89738897 147.1063934 283.89730473 147.88143639 C283.89649253 160.06166461 283.91561492 172.24176897 283.94382922 184.42196138 C283.97261002 196.946182 283.98636659 209.47034233 283.98464167 221.99459684 C283.98397944 229.01882686 283.98939783 236.04292711 284.01099777 243.06712723 C284.03119673 249.67785443 284.03048289 256.28835539 284.01596451 262.8991127 C284.01387906 265.31894837 284.01856141 267.73880129 284.03068542 270.15860748 C284.11800888 288.80208318 283.00719455 303.18313374 269.83944702 317.45492554 C260.07987175 326.80396418 248.99928508 329.57678578 235.89567566 329.53485107 C234.32497166 329.54164774 234.32497166 329.54164774 232.72253627 329.54858172 C229.22606082 329.56120632 225.72974152 329.55960657 222.23324585 329.55795288 C219.72116903 329.56393937 217.20909405 329.5707452 214.69702148 329.57830811 C208.5883063 329.59413115 202.47964796 329.60041602 196.3709142 329.60153286 C191.40172194 329.60248517 186.43254236 329.60660459 181.46335411 329.61293411 C167.35472168 329.63053752 153.24611961 329.63977453 139.13747612 329.63827316 C138.37775689 329.63819325 137.61803766 329.63811334 136.83529663 329.63803101 C136.07464268 329.63794924 135.31398873 329.63786748 134.53028467 329.63778324 C122.21109032 329.63697086 109.8920184 329.65609891 97.57285944 329.68430774 C84.90396568 329.71308694 72.23513151 329.72684523 59.56620425 329.72512019 C52.46150616 329.72445797 45.35693636 329.72987614 38.25226784 329.75147629 C31.5668069 329.77167263 24.88166088 329.77096312 18.19617081 329.75644302 C15.74892086 329.75435736 13.30165387 329.7590412 10.85443306 329.77116394 C-7.33709801 329.85540862 -21.73055722 329.20365838 -35.69180298 316.20101929 C-45.93718077 305.51600775 -48.77378144 293.16285011 -48.54336548 278.79476929 C-48.52016235 277.96074585 -48.49695923 277.12672241 -48.47305298 276.26742554 C-44.84305298 275.93742554 -41.21305298 275.60742554 -37.47305298 275.26742554 C-37.37508423 276.37859741 -37.27711548 277.48976929 -37.17617798 278.63461304 C-35.98011119 291.01160688 -34.27828411 301.63497695 -24.47305298 310.26742554 C-16.33227607 315.84116304 -8.91222574 317.56613221 0.82400513 317.53485107 C1.85929832 317.53938219 2.89459151 317.5439133 3.96125722 317.54858172 C7.42948829 317.56123936 10.8975626 317.55960444 14.36581421 317.55795288 C16.85290733 317.5639373 19.33999859 317.57074264 21.8270874 317.57830811 C27.88159842 317.59414866 33.93604784 317.60041692 39.99057385 317.60153286 C44.91407319 317.6024842 49.83755971 317.60659879 54.76105499 317.61293411 C68.73068819 317.63054277 82.7002907 317.63977368 96.66993508 317.63827316 C97.79895091 317.6381533 97.79895091 317.6381533 98.95077515 317.63803101 C99.70437519 317.63794924 100.45797522 317.63786748 101.23441163 317.63778324 C113.44259606 317.63697066 125.65065702 317.6561024 137.85880575 317.68430774 C150.40445045 317.71306326 162.95003499 317.72684654 175.49571347 317.72512019 C182.53495324 317.72445716 189.5740636 317.72991089 196.61327362 317.75147629 C203.2354691 317.77163458 209.85743842 317.77098712 216.47966385 317.75644302 C218.90720901 317.75435302 221.33477122 317.75906716 223.76228714 317.77116394 C227.08249593 317.78663465 230.40176531 317.77729515 233.72195435 317.76190186 C235.15457395 317.77733254 235.15457395 317.77733254 236.61613536 317.79307497 C246.13791616 317.69587391 255.12097142 314.45607549 262.08163452 307.77523804 C267.90464236 301.48870719 271.64053976 293.5548608 271.6611681 284.91723537 C271.66785486 283.61441637 271.66785486 283.61441637 271.67467672 282.28527778 C271.67449235 281.33558634 271.67430799 280.3858949 271.67411804 279.40742493 C271.67963307 277.88873341 271.67963307 277.88873341 271.68525952 276.33936125 C271.69629935 272.93638995 271.70014074 269.53344918 271.70394897 266.13046265 C271.71021344 263.69454857 271.71686023 261.25863546 271.72386169 258.82272339 C271.74309061 251.50503282 271.75369068 244.18734478 271.76258948 236.86963663 C271.76697575 233.42073037 271.77234173 229.97182565 271.77757835 226.52292061 C271.79458985 215.05265974 271.80908259 203.58239981 271.8163271 192.11212826 C271.81823689 189.13663164 271.82015723 186.16113502 271.82211304 183.18563843 C271.82259678 182.44612277 271.82308052 181.70660711 271.82357892 180.94468189 C271.83187387 168.97307923 271.85720207 157.00157665 271.88969371 145.03001767 C271.92280461 132.72965093 271.94077954 120.42933499 271.94397134 108.12892348 C271.94613285 101.2265458 271.95482854 94.32431404 271.98043251 87.4219799 C272.0044761 80.92540097 272.0079399 74.42901301 271.99767113 67.93239594 C271.99717603 65.55203186 272.00348874 63.17165482 272.01722717 60.79133034 C272.03497783 57.53267876 272.02782353 54.27496481 272.01469421 51.01631165 C272.02566346 50.08223525 272.03663271 49.14815886 272.04793435 48.18577713 C271.95376837 38.45410735 268.88429912 28.83514486 262.03475952 21.71664429 C255.73698171 15.86870775 247.7867384 12.15363012 239.12990475 12.13320446 C238.25090856 12.12874662 237.37191236 12.12428877 236.46627992 12.11969584 C235.50491564 12.1198802 234.54355135 12.12006457 233.55305481 12.12025452 C232.52834314 12.11657783 231.50363147 12.11290114 230.44786793 12.10911304 C227.00343808 12.09807248 223.5590384 12.09423169 220.11459351 12.09042358 C217.64912317 12.08415917 215.18365378 12.07751239 212.71818542 12.07051086 C205.3115045 12.05128139 197.90483159 12.04068182 190.49813303 12.03178307 C187.00738648 12.02739692 183.51664143 12.02203091 180.02589607 12.0167942 C168.41666574 11.99978267 156.80743634 11.98528988 145.19819546 11.97804546 C142.18660417 11.97613567 139.17501289 11.97421532 136.16342163 11.97225952 C135.41493413 11.97177578 134.66644663 11.97129204 133.89527769 11.97079364 C121.77817875 11.96249852 109.66117871 11.93717005 97.54412293 11.90467884 C85.09459458 11.87156924 72.64511642 11.85359313 60.19554383 11.85040122 C53.20932988 11.8482396 46.22326009 11.83954219 39.23708916 11.81394005 C32.66171301 11.7898986 26.08654906 11.78643183 19.51112175 11.79670143 C17.10173175 11.79719658 14.69232895 11.79088245 12.28297806 11.77714539 C8.98491854 11.75939809 5.68778577 11.76654744 2.38972473 11.77967834 C1.4439755 11.7687091 0.49822626 11.75773985 -0.47618204 11.74643821 C-10.70546318 11.84426637 -19.99373502 15.17996251 -27.47305298 22.26742554 C-34.81701032 30.24415205 -36.57484806 40.68805012 -36.63127136 51.21502686 C-36.63620934 51.88985599 -36.64114732 52.56468513 -36.64623493 53.25996363 C-36.66152014 55.50772855 -36.66994601 57.7554651 -36.67837524 60.00326538 C-36.68796084 61.6198959 -36.69797132 63.23652395 -36.70837402 64.85314941 C-36.73535531 69.23280388 -36.75640147 73.61246905 -36.77637601 77.99216032 C-36.79827746 82.57259275 -36.82564577 87.15299244 -36.85243225 91.73339844 C-36.90230297 100.40300949 -36.94726261 109.07263876 -36.99045461 117.74228537 C-37.03987508 127.61408417 -37.09477535 137.48585013 -37.15013421 147.35761714 C-37.26386795 167.66085599 -37.37072567 187.96412621 -37.47305298 208.26742554 C-41.10305298 208.26742554 -44.73305298 208.26742554 -48.47305298 208.26742554 C-48.56667181 186.45712354 -48.637118 164.64685487 -48.68030167 142.8363924 C-48.70088936 132.70843585 -48.72893716 122.58060446 -48.77481079 112.45272827 C-48.81479499 103.62086642 -48.84051333 94.78909525 -48.84940696 85.95714539 C-48.85460215 81.2846584 -48.86673296 76.61243076 -48.89597321 71.94002724 C-48.92332574 67.53314564 -48.93145832 63.12662777 -48.9254837 58.71966934 C-48.92657514 57.11093983 -48.93441012 55.50219688 -48.94987488 53.89354134 C-49.0906821 38.47745569 -46.21842492 25.07055304 -35.66445923 13.24008179 C-25.6762549 3.7502494 -13.42561709 -0.04300867 0 0 Z " fill="#1F4783" transform="translate(89.47305297851563,44.732574462890625)"/>
<path d="M0 0 C8.58318683 -2.33759977 18.73679146 -4.26681235 27 0 C36.48471548 7.77583139 42.26849116 20.68075039 48.19726562 31.17138672 C51.93120833 37.71163598 56.19418934 43.86525253 60.50708008 50.03234863 C65.27448982 56.86039188 70.02755371 63.67188198 74 71 C73.6282666 71.52730713 73.2565332 72.05461426 72.87353516 72.59790039 C66.36074278 81.84526276 59.8689353 91.0983744 53.6328125 100.53515625 C50.07160383 105.91810533 46.42219145 111.23792963 42.75317383 116.54785156 C41.89916797 117.78430283 41.0492815 119.02361233 40.20410156 120.26611328 C39.05161719 121.92567208 37.83554115 123.54052179 36.6171875 125.15234375 C34.74795927 127.80749525 34.74795927 127.80749525 35.234375 130.40869141 C36.03702616 133.12531751 37.0426358 134.97290634 38.6328125 137.30859375 C39.18428955 138.12714844 39.7357666 138.94570312 40.30395508 139.7890625 C40.9048999 140.66304687 41.50584473 141.53703125 42.125 142.4375 C42.74592529 143.35402344 43.36685059 144.27054688 44.0065918 145.21484375 C45.99680491 148.14847119 47.99825876 151.07422995 50 154 C51.31713979 155.93830382 52.63355379 157.87710105 53.94921875 159.81640625 C55.23671194 161.71111911 56.5244686 163.60565297 57.8125 165.5 C58.43785645 166.42014893 59.06321289 167.34029785 59.70751953 168.28833008 C62.42160767 172.26959181 65.14868113 176.23415638 67.98046875 180.1328125 C68.629552 181.03483398 68.629552 181.03483398 69.29174805 181.95507812 C70.40281287 183.49067793 71.52883883 185.01542349 72.65625 186.5390625 C74 189 74 189 73.85107422 191.12792969 C72.35175471 194.42591648 70.21285761 197.30679427 68.125 200.25 C67.10406819 201.71217083 66.08323729 203.17441212 65.0625 204.63671875 C64.54429687 205.3745459 64.02609375 206.11237305 63.4921875 206.87255859 C61.35207736 209.9237562 59.23624872 212.99128896 57.125 216.0625 C56.49295654 216.97999023 56.49295654 216.97999023 55.84814453 217.91601562 C52.45722722 222.84954655 49.09719669 227.80373973 45.7421875 232.76171875 C45.27330109 233.4545546 44.80441467 234.14739044 44.32131958 234.86122131 C41.93664716 238.3855922 39.5535437 241.91101305 37.17236328 245.43774414 C36.28159381 246.75538346 35.39080679 248.07301091 34.5 249.390625 C34.09103485 249.99730515 33.6820697 250.60398529 33.26071167 251.22904968 C32.18140222 252.82453036 31.09117233 254.41260891 30 256 C29.31683716 257.18239258 29.31683716 257.18239258 28.61987305 258.38867188 C27 260 27 260 24.08911133 260.45410156 C22.35310669 260.42268066 22.35310669 260.42268066 20.58203125 260.390625 C18.70161133 260.37128906 18.70161133 260.37128906 16.78320312 260.3515625 C14.81770508 260.30128906 14.81770508 260.30128906 12.8125 260.25 C11.4772399 260.22993307 10.14195117 260.21168262 8.80664062 260.1953125 C5.53703854 260.14809803 2.26887808 260.08225184 -1 260 C-0.6582373 259.48808105 -0.31647461 258.97616211 0.03564453 258.44873047 C2.96600379 254.05659332 5.88912971 249.65979068 8.8046875 245.2578125 C10.16142584 243.2135201 11.51819717 241.1692496 12.875 239.125 C13.54402344 238.11308594 14.21304688 237.10117187 14.90234375 236.05859375 C18.92531738 230.00475482 23.07625175 224.08824167 27.43798828 218.27294922 C29.15314806 216.00170165 29.15314806 216.00170165 30 213 C29.34 212.67 28.68 212.34 28 212 C29.32 212 30.64 212 32 212 C32.21398437 211.34644531 32.42796875 210.69289063 32.6484375 210.01953125 C34.49663775 205.89045959 37.02670471 202.37721121 39.625 198.6875 C40.3984375 197.57665039 40.3984375 197.57665039 41.1875 196.44335938 C42.45394726 194.62577303 43.72485759 192.81149162 45 191 C41.24217879 183.83176613 36.8580642 177.20823421 32.25 170.5625 C30.90002015 168.60617326 29.55101049 166.64917656 28.203125 164.69140625 C27.61176758 163.83748291 27.02041016 162.98355957 26.41113281 162.10375977 C25 160 25 160 24 158 C15.42 157.67 6.84 157.34 -2 157 C-2 175.48 -2 193.96 -2 213 C-2.33 213 -2.66 213 -3 213 C-3 194.19 -3 175.38 -3 156 C9.375 155.505 9.375 155.505 22 155 C20.25009766 152.48826172 20.25009766 152.48826172 18.46484375 149.92578125 C17.34519408 148.29150999 16.22564964 146.65716381 15.10913086 145.02075195 C14.33163758 143.88715735 13.54879189 142.75721422 12.76049805 141.63110352 C11.62702826 140.00991992 10.5143945 138.37423147 9.40234375 136.73828125 C8.38901978 135.26935425 8.38901978 135.26935425 7.35522461 133.77075195 C6 131 6 131 6.12060547 128.39916992 C7.04172235 125.8861728 8.09721502 124.03893245 9.66796875 121.875 C10.22460205 121.09648682 10.78123535 120.31797363 11.35473633 119.51586914 C11.95954834 118.68563232 12.56436035 117.85539551 13.1875 117 C14.46825239 115.20853539 15.74683146 113.41551542 17.0234375 111.62109375 C17.68182617 110.6966748 18.34021484 109.77225586 19.01855469 108.81982422 C22.81169433 103.42175093 26.43551445 97.91091707 30.06542969 92.40234375 C32.61720096 88.53894162 35.18138111 84.70315945 37.9140625 80.96484375 C38.56121216 80.07236938 38.56121216 80.07236938 39.22143555 79.16186523 C40.34232708 77.63006265 41.48092352 76.11125743 42.62109375 74.59375 C44.20596706 72.11922763 44.20596706 72.11922763 43.953125 69.484375 C42.80117218 66.48174389 41.27090792 64.30152574 39.3125 61.75 C36.74578578 58.33076999 34.20156619 54.92127013 31.8125 51.375 C31.38582031 50.74335938 30.95914063 50.11171875 30.51953125 49.4609375 C29.16734655 47.27102398 27.93748857 45.05836693 26.7109375 42.796875 C24.03341024 37.94195766 20.9832664 33.41815228 17.8125 28.875 C16.6674192 27.21522275 15.52289518 25.55506125 14.37890625 23.89453125 C13.81316895 23.07549316 13.24743164 22.25645508 12.66455078 21.41259766 C10.17673695 17.80676364 7.70312545 14.19201784 5.25 10.5625 C4.62315308 9.65056885 4.62315308 9.65056885 3.98364258 8.72021484 C2.03368266 5.82390844 0.72457298 3.40411725 0 0 Z " fill="#34A2C3" transform="translate(186,80)"/>
<path d="M0 0 C8.0929146 -0.23226897 16.18442557 -0.40965367 24.27985477 -0.51812172 C28.0395783 -0.57019843 31.79701365 -0.64074544 35.55541992 -0.75439453 C39.18663701 -0.86350341 42.8156626 -0.92292777 46.44839287 -0.94877243 C47.83012849 -0.96717343 49.21175113 -1.00311408 50.59254646 -1.05730057 C61.39576368 -1.4641734 61.39576368 -1.4641734 65.3583374 2.1524353 C67.1583994 4.6968823 68.60052411 7.21923515 70 10 C70.86076912 11.34168018 71.73508895 12.67494735 72.6328125 13.9921875 C73.46539662 15.28526585 74.29607918 16.57957026 75.125 17.875 C76.0752732 19.35172188 77.02580521 20.82827725 77.9765625 22.3046875 C78.71374512 23.4508252 78.71374512 23.4508252 79.46582031 24.62011719 C82.13129961 28.75491862 84.8166363 32.87679231 87.5 37 C91.71152287 43.47709655 95.92224596 49.95470936 100.125 56.4375 C100.57423828 57.12908203 101.02347656 57.82066406 101.48632812 58.53320312 C102.30450357 59.79628503 103.11834386 61.06219123 103.92675781 62.33154297 C104.8797538 63.81306585 105.87089151 65.26989829 106.8671875 66.72265625 C108 69 108 69 107.7824707 70.79589844 C106.7617046 73.67124208 105.27084375 75.98046788 103.61328125 78.54296875 C102.92169922 79.61740234 102.23011719 80.69183594 101.51757812 81.79882812 C100.78262505 82.92843289 100.0475986 84.05798992 99.3125 85.1875 C98.60416016 86.28642578 97.89582031 87.38535156 97.16601562 88.51757812 C95.12048176 91.68503916 93.06815274 94.847256 91 98 C90.64000916 98.78113663 90.28001831 99.56227325 89.90911865 100.36708069 C88.5029719 103.09528006 87.30299575 104.95778237 85 107 C80.28753484 108.19357362 75.66542664 107.91180158 70.8515625 107.66015625 C69.47019001 107.62089199 68.08869726 107.58566914 66.7071228 107.55430603 C63.08492796 107.46128112 59.46697332 107.31370477 55.84716797 107.15441895 C52.14780772 107.00139663 48.44706076 106.9003962 44.74609375 106.79492188 C37.4950522 106.58064339 30.24770225 106.3086763 23 106 C24.36826478 102.45907771 25.83989909 99.54870954 28.046875 96.453125 C28.9440625 95.1846875 28.9440625 95.1846875 29.859375 93.890625 C30.48328125 93.01921875 31.1071875 92.1478125 31.75 91.25 C33.57935526 88.67650023 35.40566486 86.10119937 37.22070312 83.51757812 C38.40480812 81.84215404 39.60670643 80.17916189 40.82617188 78.52929688 C41.38369141 77.75134766 41.94121094 76.97339844 42.515625 76.171875 C43.01868164 75.48706055 43.52173828 74.80224609 44.04003906 74.09667969 C45.32643196 71.28703009 44.95431489 69.90506774 44 67 C42.88265175 64.93513413 42.88265175 64.93513413 41.38671875 62.95703125 C40.81115234 62.15031982 40.23558594 61.3436084 39.64257812 60.51245117 C38.99740234 59.62146729 38.35222656 58.7304834 37.6875 57.8125 C29.91447875 46.8591846 22.39097855 35.74749043 14.93179321 24.57846069 C13.64191002 22.64812903 12.35005276 20.71911504 11.0562439 18.79141235 C9.22030441 16.05545017 7.3905342 13.31546716 5.5625 10.57421875 C4.71985344 9.32099319 4.71985344 9.32099319 3.86018372 8.04244995 C3.09601387 6.89161423 3.09601387 6.89161423 2.31640625 5.7175293 C1.86724854 5.04521774 1.41809082 4.37290619 0.95532227 3.68022156 C0 2 0 2 0 0 Z " fill="#42C9D9" transform="translate(226,80)"/>
<path d="M0 0 C1.09920273 0.00222061 2.19840546 0.00444122 3.33091736 0.00672913 C4.57212845 0.00680466 5.81333954 0.00688019 7.09216309 0.00695801 C8.45682311 0.01206541 9.82148274 0.01728142 11.18614197 0.02259827 C12.57476755 0.02446251 13.96339379 0.02588638 15.35202026 0.02688599 C19.01319686 0.03071065 22.67433402 0.04054048 26.335495 0.05158997 C30.06890835 0.06180519 33.80232805 0.06638384 37.53575134 0.07142639 C44.86584748 0.08216281 52.19591108 0.0992386 59.52598572 0.12025452 C58.19626929 3.55901421 56.80291535 6.38243192 54.63536072 9.37025452 C54.09137634 10.14369202 53.54739197 10.91712952 52.98692322 11.71400452 C51.84102754 13.32558382 50.68463502 14.92974792 49.51817322 16.52650452 C46.32426986 20.74766512 46.32426986 20.74766512 45.87754822 25.73744202 C46.42153259 26.52377014 46.96551697 27.31009827 47.52598572 28.12025452 C48.24740542 29.26865085 48.96875371 30.41709205 49.69004822 31.56556702 C50.92468207 33.42548318 52.17196356 35.27620649 53.42442322 37.12416077 C56.52598572 41.80671454 56.52598572 41.80671454 56.52598572 45.12025452 C48.81703103 45.61060872 41.1118187 45.98168355 33.391119 46.20831013 C29.80313712 46.31722274 26.22592189 46.46415861 22.64414978 46.70448303 C-0.50117336 48.21860144 -0.50117336 48.21860144 -7.20387268 42.99128723 C-12.19739399 37.39560828 -15.62327871 31.02530696 -18.47401428 24.12025452 C-3.35295537 0.16297724 -3.35295537 0.16297724 0 0 Z " fill="#2576A2" transform="translate(250.47401428222656,185.87974548339844)"/>
<path d="M0 0 C0.87269531 -0.00524185 1.74539062 -0.0104837 2.64453125 -0.0158844 C4.48696836 -0.02229891 6.32944645 -0.02097498 8.171875 -0.01245117 C10.9903244 -0.00393548 13.80675049 -0.0327183 16.625 -0.06445312 C18.41666606 -0.06606513 20.20833571 -0.06548762 22 -0.0625 C23.26263672 -0.07935097 23.26263672 -0.07935097 24.55078125 -0.09654236 C28.37166608 -0.05103353 30.37785307 -0.00383852 33.56640625 2.23803711 C35 4.43359375 35 4.43359375 34.9375 8.05859375 C34 11.43359375 34 11.43359375 31 13.43359375 C29.10290527 13.69429016 29.10290527 13.69429016 26.94335938 13.70825195 C25.72694763 13.72254997 25.72694763 13.72254997 24.48596191 13.73713684 C23.17806702 13.73576973 23.17806702 13.73576973 21.84375 13.734375 C20.94507202 13.73866013 20.04639404 13.74294525 19.1204834 13.74736023 C17.22079308 13.75310218 15.32108077 13.75360478 13.42138672 13.74926758 C10.51101319 13.74610571 7.60165421 13.76957471 4.69140625 13.79492188 C2.84635545 13.79719465 1.00130191 13.79789847 -0.84375 13.796875 C-1.71567993 13.80608475 -2.58760986 13.81529449 -3.48596191 13.82478333 C-4.29690308 13.81855453 -5.10784424 13.81232574 -5.94335938 13.8059082 C-7.01233459 13.80685234 -7.01233459 13.80685234 -8.10290527 13.80781555 C-10.60337764 13.31457119 -11.48162718 12.45460473 -13 10.43359375 C-13.4375 6.93359375 -13.4375 6.93359375 -13 3.43359375 C-9.50268349 -0.60522393 -4.93896561 -0.01722469 0 0 Z " fill="#202C63" transform="translate(71,295.56640625)"/>
<path d="M0 0 C2.05013493 -0.00971283 4.09927004 -0.04074007 6.14916992 -0.07226562 C7.43887695 -0.07742188 8.72858398 -0.08257812 10.05737305 -0.08789062 C11.83712524 -0.10190918 11.83712524 -0.10190918 13.65283203 -0.11621094 C16.6237793 0.24023438 16.6237793 0.24023438 18.51074219 1.57324219 C20.25214117 4.18132999 20.00456275 6.19396671 19.6237793 9.24023438 C18.50854492 10.90283203 18.50854492 10.90283203 16.6237793 12.24023438 C13.66870117 12.62841797 13.66870117 12.62841797 10.0925293 12.63867188 C8.80733398 12.64253906 7.52213867 12.64640625 6.19799805 12.65039062 C5.52945801 12.64410645 4.86091797 12.63782227 4.17211914 12.63134766 C2.130586 12.61528792 0.09103222 12.63120109 -1.95043945 12.65039062 C-3.23563477 12.64652344 -4.52083008 12.64265625 -5.8449707 12.63867188 C-7.02510742 12.63528809 -8.20524414 12.6319043 -9.42114258 12.62841797 C-12.3762207 12.24023438 -12.3762207 12.24023438 -14.22192383 10.90283203 C-15.3762207 9.24023438 -15.3762207 9.24023438 -16.3762207 6.24023438 C-15.5637207 3.61523438 -15.5637207 3.61523438 -14.3762207 1.24023438 C-10.15429983 -0.87072606 -4.64429307 0.01335047 0 0 Z " fill="#1B2F68" transform="translate(86.376220703125,264.759765625)"/>
<path d="M0 0 C1.55557617 -0.04253906 1.55557617 -0.04253906 3.14257812 -0.0859375 C10.73924288 -0.10545366 10.73924288 -0.10545366 14.78125 2.8671875 C16.5625 5.5 16.5625 5.5 16.625 8.125 C15.33654631 11.00507295 14.24747408 11.87197541 11.5625 13.5 C7.58608965 14.14377125 3.5855798 14.0094884 -0.4375 14 C-1.530625 14.02835937 -2.62375 14.05671875 -3.75 14.0859375 C-11.73407353 14.10550631 -11.73407353 14.10550631 -15.1875 11.1328125 C-16.4375 8.5 -16.4375 8.5 -16.4375 5.875 C-13.46986183 -1.17314064 -6.51028524 -0.01612455 0 0 Z " fill="#1F2A62" transform="translate(31.4375,295.5)"/>
<path d="M0 0 C1.25361328 -0.02449219 2.50722656 -0.04898437 3.79882812 -0.07421875 C5.59803711 -0.08001953 5.59803711 -0.08001953 7.43359375 -0.0859375 C9.08766235 -0.09826416 9.08766235 -0.09826416 10.77514648 -0.11083984 C13.5625 0.375 13.5625 0.375 15.45727539 2.20849609 C17.01640865 5.26476925 16.47802339 7.13545571 15.5625 10.375 C11.77958327 14.15791673 5.2286899 12.74476813 0.125 12.75 C-1.12861328 12.77449219 -2.38222656 12.79898437 -3.67382812 12.82421875 C-5.47303711 12.83001953 -5.47303711 12.83001953 -7.30859375 12.8359375 C-8.41130615 12.84415527 -9.51401855 12.85237305 -10.65014648 12.86083984 C-13.4375 12.375 -13.4375 12.375 -15.33227539 10.54150391 C-16.89140865 7.48523075 -16.35302339 5.61454429 -15.4375 2.375 C-11.65458327 -1.40791673 -5.1036899 0.00523187 0 0 Z " fill="#1D2F68" transform="translate(44.4375,264.625)"/>
<path d="M0 0 C0.54970459 0.16331314 1.09940918 0.32662628 1.66577148 0.49488831 C4.29940894 1.06479013 6.65280785 1.1054888 9.34765625 1.08178711 C10.94951782 1.07199074 10.94951782 1.07199074 12.58374023 1.06199646 C13.73173096 1.05056107 14.87972168 1.03912567 16.0625 1.02734375 C18.49218609 1.01470033 20.92187367 1.00233917 23.3515625 0.99023438 C27.18331507 0.96538163 31.014991 0.93736965 34.84667969 0.90405273 C38.54362486 0.87390169 42.24047131 0.85609328 45.9375 0.83984375 C47.08549072 0.82638412 48.23348145 0.8129245 49.41625977 0.79905701 C50.48416748 0.79567825 51.5520752 0.7922995 52.65234375 0.78881836 C53.59070068 0.78136093 54.52905762 0.7739035 55.49584961 0.76622009 C58 1 58 1 62 3 C40.88 3 19.76 3 -2 3 C-1.34 2.01 -0.68 1.02 0 0 Z " fill="#3D9DBE" transform="translate(227,337)"/>
<path d="M0 0 C1.61165039 0.03383789 1.61165039 0.03383789 3.25585938 0.06835938 C5.9011685 0.12714402 8.54361413 0.20926043 11.1875 0.3125 C11.1875 0.6425 11.1875 0.9725 11.1875 1.3125 C10.20354248 1.342229 10.20354248 1.342229 9.19970703 1.37255859 C6.23688931 1.46762507 3.27479468 1.57737752 0.3125 1.6875 C-1.23630859 1.73390625 -1.23630859 1.73390625 -2.81640625 1.78125 C-4.29560547 1.83925781 -4.29560547 1.83925781 -5.8046875 1.8984375 C-6.71589355 1.9298584 -7.62709961 1.9612793 -8.56591797 1.99365234 C-11.01181186 2.11132511 -11.01181186 2.11132511 -12.8125 4.3125 C-12.49051034 7.41176819 -12.49051034 7.41176819 -11.8125 10.3125 C-13.1325 10.3125 -14.4525 10.3125 -15.8125 10.3125 C-16.625 8.125 -16.625 8.125 -16.8125 5.3125 C-12.55004097 -1.15730388 -7.19583994 -0.28572364 0 0 Z " fill="#4D577D" transform="translate(31.8125,295.6875)"/>
<path d="M0 0 C0.66 0.33 1.32 0.66 2 1 C2 1.66 2 2.32 2 3 C-8.56 3 -19.12 3 -30 3 C-30 2.67 -30 2.34 -30 2 C-29.16227051 1.97494385 -28.32454102 1.9498877 -27.46142578 1.92407227 C-24.35647744 1.82899643 -21.25169819 1.72975975 -18.14697266 1.62768555 C-16.14105193 1.56301749 -14.13497772 1.50316894 -12.12890625 1.44335938 C-10.24365234 1.38051758 -10.24365234 1.38051758 -8.3203125 1.31640625 C-7.15773926 1.27974854 -5.99516602 1.24309082 -4.79736328 1.20532227 C-2.0464499 1.18178341 -2.0464499 1.18178341 0 0 Z " fill="#2F5F96" transform="translate(213,123)"/>
<path d="M0 0 C8.91 0 17.82 0 27 0 C27.33 0.99 27.66 1.98 28 3 C27.01 3.495 27.01 3.495 26 4 C26 3.01 26 2.02 26 1 C24.26363281 1.12568359 24.26363281 1.12568359 22.4921875 1.25390625 C20.95314934 1.35713442 19.4140854 1.45997869 17.875 1.5625 C17.11445313 1.61857422 16.35390625 1.67464844 15.5703125 1.73242188 C11.20006872 2.01498074 7.31929331 1.93147699 3 1 C3 1.66 3 2.32 3 3 C2.01 2.67 1.02 2.34 0 2 C0 1.34 0 0.68 0 0 Z " fill="#4ACCDD" transform="translate(186,80)"/>
<path d="M0 0 C0.50015625 0.15339844 1.0003125 0.30679687 1.515625 0.46484375 C4.90327766 1.19457396 8.29961519 1.36356477 11.75 1.5625 C12.44738281 1.60568359 13.14476562 1.64886719 13.86328125 1.69335938 C15.57531922 1.79889596 17.28763561 1.8998991 19 2 C19 2.33 19 2.66 19 3 C12.07 3 5.14 3 -2 3 C-1.34 2.01 -0.68 1.02 0 0 Z " fill="#359AB8" transform="translate(227,337)"/>
<path d="M0 0 C0.99 0 1.98 0 3 0 C2.67 4.29 2.34 8.58 2 13 C1.34 13 0.68 13 0 13 C0 8.71 0 4.42 0 0 Z " fill="#3C4170" transform="translate(41,321)"/>
<path d="M0 0 C0.99 0.33 1.98 0.66 3 1 C2.46375 1.556875 1.9275 2.11375 1.375 2.6875 C0.92125 3.450625 0.4675 4.21375 0 5 C0.70957237 7.73398135 0.70957237 7.73398135 2 10 C1.01 10 0.02 10 -1 10 C-2 9 -2 9 -2.1875 5.5625 C-2 2 -2 2 0 0 Z " fill="#263466" transform="translate(60,297)"/>
<path d="M0 0 C1.32 0.33 2.64 0.66 4 1 C3.34 1.61875 2.68 2.2375 2 2.875 C-0.2284549 4.75637427 -0.2284549 4.75637427 0 7 C-2.5 8.625 -2.5 8.625 -5 10 C-4.38545304 6.00544473 -2.29353263 3.25533664 0 0 Z " fill="#389FBC" transform="translate(234,326)"/>
<path d="M0 0 C0.66 0.99 1.32 1.98 2 3 C1.01 4.98 0.02 6.96 -1 9 C-1.66 9 -2.32 9 -3 9 C-2.01 6.03 -1.02 3.06 0 0 Z " fill="#345A8C" transform="translate(360,338)"/>
<path d="M0 0 C2.125 0.375 2.125 0.375 4 1 C3.21625 1.598125 2.4325 2.19625 1.625 2.8125 C-1.14574323 4.91085249 -1.14574323 4.91085249 -3 8 C-2.25 2.25 -2.25 2.25 0 0 Z " fill="#384C7A" transform="translate(31,265)"/>
</svg>
